<?xml version="1.0" encoding="utf-8"?>
<!-- Generator: Adobe Illustrator 16.0.4, SVG Export Plug-In . SVG Version: 6.00 Build 0)  -->
<!DOCTYPE svg PUBLIC "-//W3C//DTD SVG 1.1//EN" "http://www.w3.org/Graphics/SVG/1.1/DTD/svg11.dtd">
<svg version="1.1" id="Ebene_1" xmlns="http://www.w3.org/2000/svg" xmlns:xlink="http://www.w3.org/1999/xlink" x="0px" y="0px"
	 width="160.008px" height="58px" viewBox="0.5 64.5 160.008 58" enable-background="new 0.5 64.5 160.008 58" xml:space="preserve"
	>
<title>logoLedger</title>
<desc>Created with Sketch.</desc>
<g id="Page-1">
	<g id="dashboard-copy-25" transform="translate(-256.000000, -219.000000)">
		<g id="Group" transform="translate(228.000000, 192.000000)">
			<path id="logoLedger" fill="#2F3137" d="M75.873,133.859v-30.36h2.088v28.362h14.362v1.998H75.873z M102.704,134.294
				c-3.24,0-5.781-1.062-7.656-3.061c-1.79-1.999-2.729-4.868-2.729-8.555c0-3.564,0.845-6.558,2.614-8.625
				c1.791-2.246,4.099-3.309,7.147-3.309c2.616,0,4.73,0.994,6.29,2.75c1.559,1.932,2.302,4.434,2.302,7.618v1.689H94.423
				c0,3.06,0.748,5.438,2.19,7.058c1.36,1.689,3.475,2.436,6.091,2.436c1.244,0,2.424-0.124,3.359-0.312
				c0.934-0.248,2.183-0.559,3.674-1.186v1.999c-1.244,0.502-2.425,0.938-3.482,1.186
				C105.117,134.176,103.911,134.3,102.704,134.294z M102.08,112.682c-2.234,0-3.866,0.751-5.239,2.124
				c-1.284,1.439-2.108,3.439-2.304,6.189h13.833c0-2.626-0.557-4.626-1.683-6.121C105.631,113.428,104.071,112.682,102.08,112.682z
				 M121.569,110.869c1.559,0,3.049,0.311,4.175,0.87c1.181,0.627,2.238,1.564,3.173,3.061h0.123
				c-0.123-1.808-0.123-3.496-0.123-5.185V101.5h1.991v32.359h-1.367l-0.501-3.495c-1.682,2.558-4.23,3.93-7.348,3.93
				c-3.173,0-5.474-0.994-7.156-2.992c-1.683-1.876-2.369-4.75-2.369-8.432c0-3.875,0.811-6.817,2.369-8.935
				C116.15,111.812,118.52,110.869,121.569,110.869z M121.569,112.682c-2.426,0-4.293,0.813-5.543,2.627
				c-1.243,1.688-1.867,4.19-1.867,7.562c0,6.433,2.492,9.617,7.41,9.617c2.492,0,4.416-0.751,5.541-2.191
				c1.182-1.496,1.801-3.931,1.801-7.431v-0.311c0-3.44-0.625-5.998-1.801-7.438C126.053,113.428,124.186,112.682,121.569,112.682z
				 M152.693,111.31v1.495l-4.607,0.311c1.243,1.565,1.867,3.254,1.867,5.062c0,2.19-0.747,3.874-2.183,5.252
				c-1.491,1.373-3.358,1.999-5.788,1.999c-1.058,0-1.745,0-2.06-0.124c-0.867,0.436-1.491,0.938-1.925,1.496
				c-0.377,0.628-0.624,1.131-0.624,1.876s0.31,1.248,0.866,1.62c0.501,0.311,1.435,0.503,2.685,0.503h3.915
				c2.369,0,4.293,0.503,5.542,1.497c1.249,0.937,1.991,2.377,1.991,4.377c0,2.434-0.934,4.245-2.857,5.494
				c-1.868,1.249-4.608,1.876-8.158,1.876c-2.803,0-5.041-0.503-6.6-1.689c-1.559-1.005-2.301-2.625-2.301-4.501
				c0-1.564,0.501-2.868,1.49-3.874c0.934-1.062,2.302-1.688,3.86-2.123c-0.625-0.312-1.244-0.751-1.559-1.249
				c-0.429-0.548-0.625-1.169-0.625-1.807c0-1.496,0.934-2.869,2.803-3.998c-1.244-0.56-2.302-1.373-3.05-2.559
				c-0.748-1.13-1.058-2.502-1.058-3.998c0-2.192,0.748-4.123,2.115-5.44c1.491-1.372,3.358-2.054,5.789-2.054
				c1.436,0,2.616,0.124,3.427,0.435h7.033v0.124H152.693z M134.453,137.671c0,3.061,2.302,4.626,6.909,4.626
				c5.852,0,8.839-1.876,8.839-5.688c0-1.372-0.434-2.31-1.368-2.937c-0.934-0.684-2.424-0.994-4.539-0.994h-3.674
				C136.568,132.798,134.453,134.362,134.453,137.671z M136.259,118.245c0,1.807,0.501,3.061,1.559,4.122
				c1.058,0.938,2.425,1.495,4.175,1.495c1.924,0,3.359-0.558,4.293-1.495c1.058-0.938,1.49-2.311,1.49-4.122
				c0-1.876-0.557-3.371-1.559-4.31c-1.058-0.938-2.424-1.497-4.293-1.497c-1.8,0-3.296,0.559-4.23,1.621
				C136.636,114.992,136.259,116.488,136.259,118.245z M162.844,134.294c-3.241,0-5.733-1.062-7.658-3.061
				c-1.744-1.999-2.684-4.868-2.684-8.555c0-3.564,0.811-6.558,2.616-8.625c1.744-2.246,4.052-3.309,7.101-3.309
				c2.616,0,4.731,0.994,6.29,2.75c1.614,1.932,2.302,4.434,2.302,7.618v1.689h-16.126c0,3.06,0.749,5.438,2.184,7.058
				c1.367,1.689,3.482,2.436,6.099,2.436c1.243,0,2.425-0.124,3.358-0.312c0.935-0.248,2.184-0.559,3.674-1.186v1.999
				c-1.243,0.502-2.424,0.938-3.481,1.186C165.392,134.176,164.21,134.294,162.844,134.294z M162.343,112.682
				c-2.184,0-3.86,0.751-5.232,2.124c-1.244,1.439-2.115,3.439-2.302,6.189h13.824c0-2.626-0.501-4.626-1.683-6.121
				C165.893,113.428,164.334,112.682,162.343,112.682z M182.451,110.869c0.934,0,1.991,0.124,3.049,0.311l-0.433,2
				c-0.95-0.192-1.91-0.316-2.927-0.312c-1.867,0-3.426,0.87-4.731,2.435c-1.243,1.688-1.867,3.688-1.867,6.189v12.367h-2.115
				v-22.55h1.8l0.191,4.122h0.124c0.934-1.688,1.867-2.869,2.925-3.495C179.717,111.186,181.016,110.869,182.451,110.869z
				 M55.86,102.562c2.83,0,5.137,2.434,5.131,5.247v14.994H40.855v-20.241H55.86z M36.253,102.562v7.811H28.5v-2.559
				c0-2.941,2.43-5.252,5.232-5.252H36.253z M28.5,115.116h7.753v7.754H28.5V115.116z M53.244,135.356v-7.805h7.753v2.496
				c0,2.941-2.43,5.309-5.26,5.309H53.244z M40.855,127.552h7.753v7.81h-7.753V127.552z M28.5,127.552h7.753v7.81h-2.521
				c-2.931,0-5.232-2.439-5.232-5.309V127.552z"/>
		</g>
	</g>
</g>
</svg>
