<?xml version="1.0" encoding="utf-8"?><!DOCTYPE svg PUBLIC "-//W3C//DTD SVG 1.1//EN" "http://www.w3.org/Graphics/SVG/1.1/DTD/svg11.dtd"><svg version="1.1" id="Ebene_3" xmlns="http://www.w3.org/2000/svg" xmlns:xlink="http://www.w3.org/1999/xlink" x="0px" y="0px" width="466px" height="273px" viewBox="217.44 199.14 466 273" enable-background="new 217.44 199.14 466 273" xml:space="preserve"><g><path fill="#F5841B" d="M586.14,381.74c-20.53-0.54-40.99-2.22-61.43-4.11c0,0-44.43,12.18-57.85,13.41
 c-0.34-0.03-0.69-0.06-1.03-0.09c-4.98-5.34-10.34-9.06-18.42-8.61c-12.25,0.69-24.59,0.79-36.85,0.19
 c-8.72-0.42-16.24,1.31-22.77,7.09c-2.41-0.27-4.86-0.34-7.22-0.84c-17.31-3.67-34.6-7.42-51.89-11.15
 c-20.44,1.8-40.88,3.73-61.42,4.13c-2.93-0.35-5.73,0.3-8.58,0.89c-13.73,2.84-27.49,5.55-41.23,8.31c0-34.88,0-69.75,0-104.62
 c2.28,0.37,4.37-0.41,6.52-0.98c30.06-7.93,60.14-15.83,90.21-23.73c-0.72,4.08-3.97,6.09-6.75,8.6
 c-7.29,6.61-15.24,12.63-20.3,21.37l-0.04,0.05c-0.52,0.36-1.36,0.64-1.48,1.11c-0.29,1.14,0.74,1.37,1.58,1.63l0.01,0.01
 c-0.04,2.55,0.99,4.77,2.14,6.95c10.03,19.13,20.03,38.27,30.11,57.37c2.55,4.83,5.39,9.51,8.1,14.25
 c0.44-0.08,0.89-0.16,1.33-0.23c0-12.8,0-25.59,0-38.39c6.27,1.27,12.51,2.71,18.81,3.78c12.37,2.09,24.3,6.47,36.96,7
 c3.37,1.83,3.64,5.42,4.73,8.51c2.35,6.69,4.58,13.42,6.86,20.14c1.86-1.5,2.21-2.54,2.21-3.57c0.04-21.39,0.1-42.78-0.01-64.17
 c-0.02-3.98-0.73-7.96-2.54-11.63c-0.03-1.33-0.09-4-0.09-4l-5.53-91.2c0,0,48.48-0.05,72.62-0.05
 c-0.52,11.79-0.89,23.58-1.6,35.35c-1.12,18.64-2.48,37.27-3.73,55.9c-0.4,1.28-0.81,2.57-1.21,3.85
 c-3.46,26.38-0.62,52.76-0.43,79.24c2.53-3.82,3.54-7.94,5.4-11.63c2.76-5.47,2.05-12.47,7.41-16.75c2.46,0.54,4.78-0.08,7.18-0.6
 c16.18-3.46,32.39-6.8,48.58-10.18c0,12.8,0,25.6,0,39.52c1.5-1.43,2.09-1.76,2.36-2.27c12.42-23.41,24.8-46.82,37.19-70.24
 c1.15-2.18,2.18-4.4,2.14-6.95c0.02-0.93,0.04-1.86,0.07-2.79c-5.06-8.74-13.01-14.76-20.31-21.37c-2.78-2.52-6.03-4.53-6.74-8.61
 c17.88,4.67,35.8,9.19,53.62,14.07c16.08,4.41,32.43,7.86,48.21,13.33c0.77,2.32,1.49,4.66,2.31,6.96
 c12.36,34.31,24.74,68.62,37.12,102.93c-2.66-0.16-5.37-0.04-7.96-0.54" /><path fill-rule="evenodd" clip-rule="evenodd" fill="#763D16" d="M641.05,289.02c-15.79-5.47-32.13-8.92-48.21-13.33
 c-17.82-4.89-35.75-9.4-53.62-14.07c-2.06-1.3-4.34-2.35-6.15-3.94c-19.74-17.39-39.44-34.83-59.05-52.36
 c-1.85-1.66-4.78-2.82-4.39-6.18c63.49,0,126.98,0,190.47,0c-0.05,8.03-4.28,17.65,8,21.01c0.29,0.08,0.42,0.72,0.78,1.39
 c-4.52,3.83-9.09,7.7-13.68,11.59c3.41,3.42,8.18,4.65,12.27,9.82c-5.18,4.14-10.21,8.17-15.15,12.12
 c3.23,3.59,7.27,4.04,9.28,7.44C654.69,271.41,647.87,280.21,641.05,289.02z" /><path fill-rule="evenodd" clip-rule="evenodd" fill="#763D16" d="M319.23,261.36c-30.07,7.9-100.75,26.39-103.03,26.03l-0.5-89.75
 l173.12,1.25" /><path fill-rule="evenodd" clip-rule="evenodd" fill="#E3761B" d="M672.52,398.36c2.59,0.5,5.3,0.38,7.96,0.54
 c0,0-1,10.18-1.58,12.68c-4.69,20.29-9.31,40.59-14.01,61.12c-43.97,0-87.42,0-130.87,0c0.51-0.9,25.39-43.23,37.16-63.6
 c5.2-9,11.18-17.58,14.96-27.36" /><path fill-rule="evenodd" clip-rule="evenodd" fill="#E3761B" d="M217.44,390.95c13.75-2.76,27.51-5.46,41.23-8.31
 c2.85-0.59,5.65-1.25,8.58-0.89c0.16,0.64,33.82,59.48,50.49,88.25c0.54,0.89,1.08,1.79,1.62,2.68
 c-33.97,0.03-67.95,0.06-101.92,0.09C217.44,445.5,217.44,418.22,217.44,390.95z" /><path fill-rule="evenodd" clip-rule="evenodd" fill="#E3761B" d="M287.13,291.59c5.06-8.74,13.01-14.76,20.3-21.37
 c2.78-2.52,6.03-4.53,6.75-8.6c9.68-5.37,16.9-13.73,25.15-20.83c13.68-11.79,27.11-23.86,40.55-35.92
 c1.7-1.52,4.36-2.63,3.89-5.73c2.24,0,4.47,0,6.71,0c1.29,28.21,5.59,91.69,5.63,93.92" /><path fill-rule="evenodd" clip-rule="evenodd" fill="#E3761B" d="M469.61,199.14c-0.39,3.36,2.54,4.52,4.39,6.18
 c19.62,17.53,39.31,34.97,59.05,52.36c1.81,1.59,4.09,2.64,6.15,3.94c0.71,4.08,3.96,6.09,6.74,8.6
 c7.29,6.61,15.24,12.63,20.31,21.38c-36.24,1.18-72.44-1.51-108.68-1.2c1.26-18.63,2.61-37.26,3.73-55.9
 c0.71-11.77,1.08-23.57,1.6-35.35C465.14,199.14,467.38,199.14,469.61,199.14z" /><path fill-rule="evenodd" clip-rule="evenodd" fill="#D6BFB1" d="M534.02,472.69c-54.39,0.07-108.78,0.15-163.17,0.19
 c-17.16,0.01-34.32-0.13-51.48-0.2c-0.54-0.89-1.08-1.79-1.62-2.68c0.18-0.36,0.31-0.74,0.37-1.13
 c12.46-12.39,23.26-26.26,35.05-39.24c11.17-12.3,21.32-25.53,33.3-37.11c0.49,14.66-3.34,28.98-3.26,44.45
 c3.29-9.96,11.1-7.6,17.89-7.63c17.65-0.08,35.31,0.18,52.95-0.13c6.53-0.12,12.42-0.11,15.33,7.09c0.03,0.08,0.75-0.1,1.12-0.16
 c-1.55-15.07-3.11-30.12-4.66-45.18c0.34,0.03,0.69,0.06,1.03,0.09c8.14,9.46,16.2,19.01,24.45,28.38
 c14.58,16.56,29.83,33.69,44.48,50.2" /><path fill-rule="evenodd" clip-rule="evenodd" fill="#171717" d="M465.83,390.95c1.55,15.05,3.11,30.11,4.66,45.18
 c-0.38,0.06-1.09,0.25-1.12,0.16c-2.91-7.19-8.8-7.2-15.33-7.09c-17.65,0.31-35.3,0.05-52.95,0.13c-6.79,0.03-14.6-2.33-17.89,7.63
 c-0.07-15.47,3.75-29.79,3.26-44.45c1.43-0.52,1.23-1.77,1.33-2.9c6.53-5.78,14.05-7.51,22.77-7.09
 c12.26,0.59,24.59,0.5,36.85-0.19C455.49,381.88,460.85,385.61,465.83,390.95z" /><path fill-rule="evenodd" clip-rule="evenodd" fill="#CC6116" d="M457.58,290.39c36.23-0.31,72.43,2.38,108.68,1.2
 c-0.02,0.93-0.04,1.85-0.07,2.78c-3.39,0.55-5.16,3.33-7.41,5.42c-11.57,10.75-23.11,21.53-34.66,32.31
 c-12.93-5.73-25.87-11.45-39.13-17.32c-5.51,9.98-10.95,19.84-16.39,29.69c-3.07-14.67-6.12-29.35-9.25-44.02
 c-0.48-2.27-0.14-5.04-2.99-6.21C456.77,292.96,457.17,291.68,457.58,290.39z" /><path fill-rule="evenodd" clip-rule="evenodd" fill="#CC6116" d="M287.13,291.59c25.36,0.02,50.74,0.55,76.08-0.18
 c10.86-0.31,21.73-1,32.61-1.03c0.03,1.33,0.06,2.66,0.09,4c-0.52,1.44-1.2,2.85-1.52,4.33c-3.24,15.24-6.41,30.49-9.61,45.74
 c-5.44-9.86-10.88-19.72-16.38-29.68c-13.25,5.87-26.19,11.6-39.13,17.33c-11.55-10.77-23.09-21.55-34.66-32.3
 c-2.25-2.09-4.02-4.88-7.41-5.42l-0.01-0.01c-0.03-0.91-0.07-1.82-0.1-2.74L287.13,291.59z" /><path fill-rule="evenodd" clip-rule="evenodd" fill="#CC6116" d="M529.39,419.32c-1.56-13.9-4.25-27.67-4.68-41.69
 c20.44,1.89,40.9,3.57,61.43,4.11c-3.78,9.78-9.76,18.36-14.96,27.36c-11.76,20.37-23.73,40.61-35.62,60.91" /><path fill-rule="evenodd" clip-rule="evenodd" fill="#CC6116" d="M318.11,468.86c-0.06,0.4-0.18,0.78-0.37,1.13
 c-16.67-28.77-33.34-57.54-49.98-86.32c-0.32-0.56-0.34-1.28-0.5-1.93c20.54-0.4,40.98-2.32,61.42-4.13
 c-0.41,14.01-3.12,27.77-4.67,41.66C322.16,435.82,320.09,452.34,318.11,468.86z" /><path fill-rule="evenodd" clip-rule="evenodd" fill="#E3761B" d="M318.11,468.86c1.97-16.53,4.04-33.04,5.89-49.58
 c1.55-13.89,4.26-27.65,4.67-41.66c17.29,3.73,34.58,7.48,51.89,11.15c2.36,0.5,4.81,0.57,7.22,0.84c-0.1,1.12,0.09,2.38-1.33,2.9
 c-11.97,11.59-22.12,24.81-33.3,37.11C341.37,442.61,330.57,456.48,318.11,468.86z" /><path fill-rule="evenodd" clip-rule="evenodd" fill="#E3761B" d="M524.8,377.62c0.43,14.03,3.28,28.17,4.84,42.07
 c1.85,16.55,3.9,33.08,5.86,49.62c-14.65-16.5-29.35-32.96-43.94-49.52c-8.25-9.37-16.31-18.91-24.45-28.38
 c12.4-4.52,25.57-5.84,38.25-9.2C511.81,380.5,518.26,379.01,524.8,377.62z" /><path fill-rule="evenodd" clip-rule="evenodd" fill="#E3761B" d="M524.12,332.1c11.55-10.77,23.09-21.55,34.66-32.31
 c2.25-2.09,4.02-4.87,7.41-5.42c0.04,2.55-0.99,4.77-2.14,6.95c-12.39,23.42-24.77,46.84-37.19,70.24
 c-0.27,0.51-0.86,0.85-2.36,2.27c0-13.92,0-26.72,0-39.52C524.38,333.58,524.25,332.84,524.12,332.1z" /><path fill-rule="evenodd" clip-rule="evenodd" fill="#E3761B" d="M287.2,294.38c3.39,0.54,5.16,3.33,7.41,5.42
 c11.57,10.75,23.11,21.53,34.66,32.3c-0.13,0.74-0.26,1.48-0.39,2.22c0,12.8,0,25.59,0,38.39c-0.44,0.08-0.89,0.16-1.33,0.23
 c-2.71-4.75-5.55-9.42-8.1-14.25c-10.09-19.1-20.09-38.24-30.11-57.37C288.19,299.15,287.16,296.93,287.2,294.38z" /><path fill-rule="evenodd" clip-rule="evenodd" fill="#283646" d="M524.12,332.1c0.13,0.74,0.26,1.48,0.38,2.22
 c-16.2,3.38-32.41,6.72-48.58,10.18c-2.4,0.51-4.72,1.14-7.18,0.6l-0.14-0.63c5.44-9.85,10.88-19.71,16.39-29.69
 C498.25,320.65,511.19,326.38,524.12,332.1z" /><path fill-rule="evenodd" clip-rule="evenodd" fill="#283646" d="M328.88,334.32c0.13-0.74,0.26-1.48,0.39-2.22
 c12.94-5.73,25.88-11.46,39.13-17.33c5.5,9.96,10.94,19.82,16.38,29.68c-0.15,0.2-0.19,0.41-0.12,0.65
 c-12.66-0.53-24.59-4.91-36.96-7C341.39,337.03,335.15,335.59,328.88,334.32z" /><path fill-rule="evenodd" clip-rule="evenodd" fill="#E3761B" d="M468.6,344.47l0.14,0.63c-5.36,4.29-4.64,11.28-7.41,16.75
 c-1.87,3.69-2.88,7.82-5.4,11.63c-0.18-26.49-3.03-52.86,0.43-79.24c2.85,1.17,2.51,3.94,2.99,6.21
 C462.48,315.11,465.53,329.79,468.6,344.47z" /><path fill-rule="evenodd" clip-rule="evenodd" fill="#E3761B" d="M384.66,345.1c-0.06-0.24-0.02-0.45,0.12-0.65
 c3.19-15.25,6.37-30.5,9.6-45.74c0.31-1.48,1-2.89,1.52-4.33c1.81,3.67,2.52,7.65,2.54,11.63c0.11,21.39,0.05,42.78,0.01,64.17
 c0,1.04-0.35,2.07-2.21,3.57c-2.28-6.72-4.51-13.45-6.86-20.14C388.3,350.53,388.03,346.94,384.66,345.1z" /><path fill-rule="evenodd" clip-rule="evenodd" fill="#E3761B" d="M287.09,291.64c0.03,0.91,0.07,1.82,0.1,2.74
 c-0.84-0.26-1.87-0.49-1.58-1.63C285.73,292.28,286.57,292,287.09,291.64z" /></g></svg>
