<?xml version="1.0" encoding="utf-8"?>
<!-- Generator: Adobe Illustrator 16.0.4, SVG Export Plug-In . SVG Version: 6.00 Build 0)  -->
<!DOCTYPE svg PUBLIC "-//W3C//DTD SVG 1.1//EN" "http://www.w3.org/Graphics/SVG/1.1/DTD/svg11.dtd">
<svg version="1.1" id="Ebene_1" xmlns="http://www.w3.org/2000/svg" xmlns:xlink="http://www.w3.org/1999/xlink" x="0px" y="0px"
	 width="1077px" height="175.5px" viewBox="0 0 1077 175.5" enable-background="new 0 0 1077 175.5" xml:space="preserve">
<g id="Page-1">
	<g id="walletconnect">
		<path id="walletconnect-logo" fill="#3B99FC" d="M54.63,32.38c43.28-43.17,113.46-43.17,156.74,0l7.16,7.14
			c1.08,1.08,1.09,2.83,0.01,3.92c0,0,0,0-0.01,0l-19.78,19.72c-1.08,1.08-2.83,1.08-3.91,0l-7.17-7.15
			c-30.19-30.12-79.15-30.12-109.35,0l-7.68,7.66c-1.08,1.08-2.83,1.08-3.91,0L46.96,43.95c-1.08-1.08-1.08-2.83,0-3.92
			c0,0,0,0,0-0.01L54.63,32.38z M246.26,67.17l17.81,17.76c2.17,2.16,2.17,5.67,0.01,7.83l-0.01,0.01l-71.5,71.32
			c-2.16,2.16-5.66,2.16-7.82,0l-50.76-50.63c-0.54-0.54-1.42-0.54-1.96,0L81.26,164.1c-2.16,2.16-5.66,2.16-7.82,0L1.93,92.78
			c-2.17-2.16-2.17-5.67-0.01-7.83l0.01-0.01l17.81-17.76c1.08-1.08,2.83-1.08,3.91,0l52.72,52.58c0.54,0.54,1.42,0.54,1.96,0
			l50.76-50.63c2.16-2.16,5.66-2.16,7.82,0l50.76,50.63c0.54,0.54,1.42,0.54,1.96,0l52.72-52.58
			C243.43,66.1,245.18,66.1,246.26,67.17z"/>
		<g id="WalletConnect">
			<g>
				<path id="path-1" d="M374.19,71.67L358.05,127h-11.08L326.65,51.61h12.17l13.84,57.73h0.729l15.73-57.73h10.87l15.83,57.73
					h0.729l13.79-57.73h12.17L402.15,127H391.13l-16.2-55.33H374.19L374.19,71.67z M448.03,118.48c8.46,0,14.729-5.38,14.729-12.44
					v-4.75l-13.899,0.89c-7.841,0.52-11.391,3.19-11.391,8.2C437.47,115.51,441.91,118.48,448.03,118.48z M445.15,127.94
					c-10.971,0-18.96-6.64-18.96-17.03c0-10.24,7.63-16.15,21.159-16.98l15.41-0.89v-4.91c0-6.01-3.97-9.4-11.649-9.4
					c-6.271,0-10.61,2.3-11.86,6.32h-10.87c1.15-9.77,10.34-16.04,23.25-16.04c14.26,0,22.311,7.1,22.311,19.12V127h-10.82v-7.99
					h-0.89C458.84,124.7,452.62,127.94,445.15,127.94z M490.25,127V47.9h11.23V127H490.25z M518.63,127V47.9h11.23V127H518.63z
					 M569.84,78.57c-8.31,0-14.109,5.85-14.729,14.73h28.729C583.58,84.37,578.15,78.57,569.84,78.57z M583.79,111.64h10.82
					c-2.46,10.14-11.65,16.46-24.66,16.46c-16.3,0-26.28-11.18-26.28-29.36c0-18.18,10.19-29.73,26.23-29.73
					c15.83,0,25.39,10.81,25.39,28.68v3.92h-40.18v0.63c0.359,9.98,6.17,16.3,15.149,16.3C577.05,118.54,581.7,116.08,583.79,111.64
					z M612.53,55.94h11.229v14.42h12.33v9.46h-12.33v29.26c0,5.96,2.46,8.57,8.05,8.57c1.721,0,2.721-0.1,4.28-0.26v9.35
					c-1.83,0.31-3.92,0.58-6.109,0.58c-12.49,0-17.45-4.39-17.45-15.36V79.82h-9.04v-9.46h9.04V55.94L612.53,55.94z M681.35,128.83
					c-20.949,0-34.01-15.1-34.01-39.5c0-24.45,13.01-39.55,33.96-39.55c16.61,0,29.47,10.76,31.351,26.12H701
					c-2.19-9.25-9.77-15.2-19.7-15.2c-13.53,0-22,11.02-22,28.63c0,17.55,8.46,28.58,22.05,28.58c9.98,0,17.561-5.38,19.65-13.9
					h11.65C710.56,118.9,698.17,128.83,681.35,128.83z M750.53,128.1c-16.67,0-26.851-11.13-26.851-29.57
					c0-18.34,10.24-29.52,26.851-29.52c16.56,0,26.8,11.18,26.8,29.521C777.33,116.97,767.15,128.1,750.53,128.1z M750.53,118.12
					c9.72,0,15.26-7.21,15.26-19.59c0-12.33-5.54-19.54-15.26-19.54c-9.771,0-15.261,7.21-15.261,19.54
					C735.28,110.96,740.76,118.12,750.53,118.12z M790.62,127V70.1h10.81v9.04h0.84C805.04,72.82,810.68,69,819.25,69
					c12.7,0,19.7,7.63,19.7,21.16V127h-11.23V92.99c0-9.14-3.97-13.69-12.279-13.69c-8.311,0-13.58,5.54-13.58,14.42V127H790.62z
					 M854.52,127V70.1h10.811v9.04h0.84C868.94,72.82,874.58,69,883.15,69c12.689,0,19.699,7.63,19.699,21.16V127H891.62V92.99
					c0-9.14-3.97-13.69-12.28-13.69c-8.31,0-13.58,5.54-13.58,14.42V127H854.52z M941.78,78.57c-8.311,0-14.11,5.85-14.73,14.73
					h28.74C955.52,84.37,950.09,78.57,941.78,78.57z M955.73,111.64h10.81c-2.46,10.14-11.65,16.46-24.66,16.46
					c-16.3,0-26.28-11.18-26.28-29.36c0-18.18,10.19-29.73,26.23-29.73c15.83,0,25.39,10.81,25.39,28.68v3.92h-40.18v0.63
					c0.37,9.98,6.17,16.3,15.15,16.3C948.99,118.54,953.64,116.08,955.73,111.64z M1028.67,88.7h-10.92
					c-1.31-5.54-5.9-9.67-13.43-9.67c-9.4,0-15.15,7.21-15.15,19.33c0,12.33,5.8,19.7,15.15,19.7c7.1,0,11.96-3.24,13.43-9.35h10.92
					c-1.46,11.44-10.24,19.38-24.29,19.38c-16.56,0-26.7-11.18-26.7-29.73c0-18.23,10.08-29.36,26.65-29.36
					C1018.59,69.01,1027.21,77.31,1028.67,88.7z M1045.25,55.94h11.23v14.42h12.329v9.46h-12.329v29.26c0,5.96,2.449,8.57,8.05,8.57
					c1.72,0,2.72-0.1,4.28-0.26v9.35c-1.83,0.31-3.921,0.58-6.11,0.58c-12.49,0-17.45-4.39-17.45-15.36V79.82h-9.04v-9.46h9.04
					V55.94L1045.25,55.94z"/>
			</g>
			<g>
				<path id="path-1_1_" fill="#3B99FC" d="M374.19,71.67L358.05,127h-11.08L326.65,51.61h12.17l13.84,57.73h0.729l15.73-57.73
					h10.87l15.83,57.73h0.729l13.79-57.73h12.17L402.15,127H391.13l-16.2-55.33H374.19L374.19,71.67z M448.03,118.48
					c8.46,0,14.729-5.38,14.729-12.44v-4.75l-13.899,0.89c-7.841,0.52-11.391,3.19-11.391,8.2
					C437.47,115.51,441.91,118.48,448.03,118.48z M445.15,127.94c-10.971,0-18.96-6.64-18.96-17.03c0-10.24,7.63-16.15,21.159-16.98
					l15.41-0.89v-4.91c0-6.01-3.97-9.4-11.649-9.4c-6.271,0-10.61,2.3-11.86,6.32h-10.87c1.15-9.77,10.34-16.04,23.25-16.04
					c14.26,0,22.311,7.1,22.311,19.12V127h-10.82v-7.99h-0.89C458.84,124.7,452.62,127.94,445.15,127.94z M490.25,127V47.9h11.23
					V127H490.25z M518.63,127V47.9h11.23V127H518.63z M569.84,78.57c-8.31,0-14.109,5.85-14.729,14.73h28.729
					C583.58,84.37,578.15,78.57,569.84,78.57z M583.79,111.64h10.82c-2.46,10.14-11.65,16.46-24.66,16.46
					c-16.3,0-26.28-11.18-26.28-29.36c0-18.18,10.19-29.73,26.23-29.73c15.83,0,25.39,10.81,25.39,28.68v3.92h-40.18v0.63
					c0.359,9.98,6.17,16.3,15.149,16.3C577.05,118.54,581.7,116.08,583.79,111.64z M612.53,55.94h11.229v14.42h12.33v9.46h-12.33
					v29.26c0,5.96,2.46,8.57,8.05,8.57c1.721,0,2.721-0.1,4.28-0.26v9.35c-1.83,0.31-3.92,0.58-6.109,0.58
					c-12.49,0-17.45-4.39-17.45-15.36V79.82h-9.04v-9.46h9.04V55.94L612.53,55.94z M681.35,128.83c-20.949,0-34.01-15.1-34.01-39.5
					c0-24.45,13.01-39.55,33.96-39.55c16.61,0,29.47,10.76,31.351,26.12H701c-2.19-9.25-9.77-15.2-19.7-15.2
					c-13.53,0-22,11.02-22,28.63c0,17.55,8.46,28.58,22.05,28.58c9.98,0,17.561-5.38,19.65-13.9h11.65
					C710.56,118.9,698.17,128.83,681.35,128.83z M750.53,128.1c-16.67,0-26.851-11.13-26.851-29.57
					c0-18.34,10.24-29.52,26.851-29.52c16.56,0,26.8,11.18,26.8,29.521C777.33,116.97,767.15,128.1,750.53,128.1z M750.53,118.12
					c9.72,0,15.26-7.21,15.26-19.59c0-12.33-5.54-19.54-15.26-19.54c-9.771,0-15.261,7.21-15.261,19.54
					C735.28,110.96,740.76,118.12,750.53,118.12z M790.62,127V70.1h10.81v9.04h0.84C805.04,72.82,810.68,69,819.25,69
					c12.7,0,19.7,7.63,19.7,21.16V127h-11.23V92.99c0-9.14-3.97-13.69-12.279-13.69c-8.311,0-13.58,5.54-13.58,14.42V127H790.62z
					 M854.52,127V70.1h10.811v9.04h0.84C868.94,72.82,874.58,69,883.15,69c12.689,0,19.699,7.63,19.699,21.16V127H891.62V92.99
					c0-9.14-3.97-13.69-12.28-13.69c-8.31,0-13.58,5.54-13.58,14.42V127H854.52z M941.78,78.57c-8.311,0-14.11,5.85-14.73,14.73
					h28.74C955.52,84.37,950.09,78.57,941.78,78.57z M955.73,111.64h10.81c-2.46,10.14-11.65,16.46-24.66,16.46
					c-16.3,0-26.28-11.18-26.28-29.36c0-18.18,10.19-29.73,26.23-29.73c15.83,0,25.39,10.81,25.39,28.68v3.92h-40.18v0.63
					c0.37,9.98,6.17,16.3,15.15,16.3C948.99,118.54,953.64,116.08,955.73,111.64z M1028.67,88.7h-10.92
					c-1.31-5.54-5.9-9.67-13.43-9.67c-9.4,0-15.15,7.21-15.15,19.33c0,12.33,5.8,19.7,15.15,19.7c7.1,0,11.96-3.24,13.43-9.35h10.92
					c-1.46,11.44-10.24,19.38-24.29,19.38c-16.56,0-26.7-11.18-26.7-29.73c0-18.23,10.08-29.36,26.65-29.36
					C1018.59,69.01,1027.21,77.31,1028.67,88.7z M1045.25,55.94h11.23v14.42h12.329v9.46h-12.329v29.26c0,5.96,2.449,8.57,8.05,8.57
					c1.72,0,2.72-0.1,4.28-0.26v9.35c-1.83,0.31-3.921,0.58-6.11,0.58c-12.49,0-17.45-4.39-17.45-15.36V79.82h-9.04v-9.46h9.04
					V55.94L1045.25,55.94z"/>
			</g>
		</g>
	</g>
</g>
</svg>
