<?xml version="1.0" encoding="utf-8"?>
<!DOCTYPE svg PUBLIC "-//W3C//DTD SVG 1.0//EN" "http://www.w3.org/TR/2001/REC-SVG-20010904/DTD/svg10.dtd">
<svg version="1.0" id="Ebene_1" xmlns="http://www.w3.org/2000/svg" xmlns:xlink="http://www.w3.org/1999/xlink" x="0px" y="0px"
	 width="100px" height="100px" viewBox="0 0 100 100" enable-background="new 0 0 100 100" xml:space="preserve">
<path d="M35.44,23.52c0-7.36,6-13.44,13.44-13.44c7.44,0,13.44,6,13.44,13.44v13.04h4.8V23.52c0-10-8.16-18.24-18.24-18.24
	s-18.24,8.16-18.24,18.24v13.44h4.8V23.52z M69.44,39.52h-41.2c-1.36,0-2.4,1.04-2.4,2.4v32c0,1.36,1.04,2.4,2.4,2.4h41.2
	c1.36,0,2.4-1.04,2.4-2.4v-32C71.84,40.56,70.8,39.52,69.44,39.52z M67.04,71.52h-36.4v-27.2h36.4V71.52z M40.24,67.44
	c0.48,0.48,1.12,0.72,1.68,0.72s1.2-0.24,1.68-0.72l5.36-5.36l5.36,5.36c0.48,0.48,1.12,0.72,1.68,0.72s1.2-0.24,1.68-0.72
	c0.96-0.96,0.96-2.48,0-3.36l-5.28-5.36l5.36-5.36c0.96-0.96,0.96-2.48,0-3.36c-0.96-0.96-2.48-0.96-3.36,0l-5.36,5.36l-5.44-5.44
	c-0.96-0.96-2.48-0.96-3.36,0c-0.96,0.96-0.96,2.48,0,3.36l5.36,5.36L40.24,64C39.28,65.04,39.28,66.56,40.24,67.44z"/>
</svg>
