<?xml version="1.0" encoding="utf-8"?>
<!-- Generator: Adobe Illustrator 16.0.4, SVG Export Plug-In . SVG Version: 6.00 Build 0)  -->
<!DOCTYPE svg PUBLIC "-//W3C//DTD SVG 1.0//EN" "http://www.w3.org/TR/2001/REC-SVG-20010904/DTD/svg10.dtd">
<svg version="1.0" id="Ebene_2" xmlns="http://www.w3.org/2000/svg" xmlns:xlink="http://www.w3.org/1999/xlink" x="0px" y="0px"
	 width="100px" height="100px" viewBox="0 0 100 100" enable-background="new 0 0 100 100" xml:space="preserve">
<path fill="none" stroke="#000000" stroke-width="4" stroke-linecap="round" stroke-miterlimit="10" d="M41.88,27.97
	C33.43,31.55,27.5,39.91,27.5,49.66c0,8.82,4.85,16.5,12.02,20.53"/>
<path fill="none" stroke="#000000" stroke-width="4" stroke-linecap="round" stroke-miterlimit="10" d="M39.01,19.65
	c-11.74,4.71-20.04,16.19-20.04,29.62c0,12.08,6.72,22.59,16.62,28"/>
<path fill="none" stroke="#000000" stroke-width="4" stroke-linecap="round" stroke-miterlimit="10" d="M36.27,12.15
	C21.63,18.02,11.3,32.34,11.3,49.07c0,14.91,8.21,27.91,20.36,34.71"/>
<path fill="none" stroke="#000000" stroke-width="4" stroke-linecap="round" stroke-miterlimit="10" d="M57.96,27.87
	c8.45,3.57,14.38,11.94,14.38,21.69c0,8.82-4.85,16.5-12.02,20.53"/>
<path fill="none" stroke="#000000" stroke-width="4" stroke-linecap="round" stroke-miterlimit="10" d="M60.83,19.55
	c11.75,4.71,20.04,16.19,20.04,29.62c0,12.08-6.72,22.59-16.62,28"/>
<path fill="none" stroke="#000000" stroke-width="4" stroke-linecap="round" stroke-miterlimit="10" d="M63.57,12.05
	c14.64,5.87,24.97,20.19,24.97,36.92c0,14.91-8.21,27.91-20.36,34.71"/>
<line fill="none" stroke="#000000" stroke-width="4" stroke-linecap="round" stroke-miterlimit="10" x1="50.46" y1="95.95" x2="50.66" y2="45.08"/>
<circle cx="50.52" cy="48.31" r="5.65"/>
</svg>
