<?xml version="1.0" encoding="utf-8"?>
<!-- Generator: Adobe Illustrator 16.0.4, SVG Export Plug-In . SVG Version: 6.00 Build 0)  -->
<!DOCTYPE svg PUBLIC "-//W3C//DTD SVG 1.0//EN" "http://www.w3.org/TR/2001/REC-SVG-20010904/DTD/svg10.dtd">
<svg version="1.0" id="Ebene_1" xmlns="http://www.w3.org/2000/svg" xmlns:xlink="http://www.w3.org/1999/xlink" x="0px" y="0px"
	 width="100px" height="100px" viewBox="0 0 100 100" enable-background="new 0 0 100 100" xml:space="preserve">
<path fill-rule="evenodd" clip-rule="evenodd" fill="#3AAA35" fill-opacity="0.8" d="M80.49,38.43c3.78,3.21,7.38,6.28,10.93,9.28
	c-13.69,16.2-27.43,32.41-41.11,48.56c-8.27-7-16.6-14.06-24.89-21.08c3-3.54,6.07-7.15,9.18-10.82c0.17,0.13,0.41,0.32,0.64,0.52
	c4.21,3.56,8.4,7.13,12.61,10.67c0.78,0.67,0.78,0.67,1.43-0.1c10.25-12.09,20.49-24.19,30.73-36.3
	C80.19,38.96,80.32,38.69,80.49,38.43z"/>
</svg>
