<?xml version="1.0" encoding="utf-8"?>
<!DOCTYPE svg PUBLIC "-//W3C//DTD SVG 1.0//EN" "http://www.w3.org/TR/2001/REC-SVG-20010904/DTD/svg10.dtd">
<svg version="1.0" id="Ebene_1" xmlns="http://www.w3.org/2000/svg" xmlns:xlink="http://www.w3.org/1999/xlink" x="0px" y="0px"
	 width="100px" height="100px" viewBox="0 0 100 100" enable-background="new 0 0 100 100" xml:space="preserve">
<path d="M57.6,39.52H16.4c-1.36,0-2.4,1.04-2.4,2.4v32c0,1.36,1.04,2.4,2.4,2.4h41.2c1.36,0,2.4-1.04,2.4-2.4v-32
	C60,40.56,58.96,39.52,57.6,39.52z M55.2,71.52H18.8v-27.2h36.4V71.52z M68.24,5.28C58.16,5.28,50,13.44,50,23.52v13.44h4.8V23.52
	c0-7.36,6-13.44,13.44-13.44c7.44,0,13.44,6,13.44,13.44v13.04h4.8V23.52C86.4,13.44,78.24,5.28,68.24,5.28z M29.76,67.44
	c0.48,0.48,1.04,0.72,1.68,0.72s1.28-0.24,1.68-0.72l14.16-14.16c0.96-0.96,0.96-2.48,0-3.36c-0.96-0.96-2.48-0.96-3.36,0
	L31.44,62.4l-2.24-2.24c-0.96-0.96-2.48-0.96-3.36,0c-0.96,0.96-0.96,2.48,0,3.36L29.76,67.44z"/>
</svg>
