<?xml version="1.0" encoding="utf-8"?>
<!-- Generator: Adobe Illustrator 16.0.4, SVG Export Plug-In . SVG Version: 6.00 Build 0)  -->
<!DOCTYPE svg PUBLIC "-//W3C//DTD SVG 1.0//EN" "http://www.w3.org/TR/2001/REC-SVG-20010904/DTD/svg10.dtd">
<svg version="1.0" id="Ebene_1" xmlns="http://www.w3.org/2000/svg" xmlns:xlink="http://www.w3.org/1999/xlink" x="0px" y="0px"
	 width="100px" height="100px" viewBox="0 0 100 100" enable-background="new 0 0 100 100" xml:space="preserve">
<g>
	<path d="M8.84,88.82h68.04c4.2,0,7.25-4.2,5.78-8.19l-2.84-7.98c-3.04-5.67-8.19-9.87-14.28-11.76l-9.45-2.83
		c-2.73-0.84-4.3-3.78-3.36-6.51c0.21-0.53,0.53-1.05,0.84-1.58l5.99-9.45c2.52-3.89,3.46-8.61,2.62-13.23l-0.63-3.67
		c-0.84-4.83-3.57-9.24-7.56-12.08c-6.72-4.83-15.75-4.72-22.37,0.32l0,0c-3.46,2.62-5.99,6.51-6.93,10.82l-0.95,4.2
		c-1.15,4.93-0.21,9.98,2.42,14.28l5.67,9.03c0.42,0.42,0.74,0.95,0.84,1.58c0.95,2.73-0.52,5.67-3.36,6.51l-9.45,2.84
		c-6.19,1.89-11.34,6.09-14.28,11.76l-2.83,7.98C1.6,84.62,4.64,88.82,8.84,88.82z"/>
</g>
</svg>
